<?xml version="1.0" encoding="UTF-8" standalone="no"?>
<!-- Created with Inkscape (http://www.inkscape.org/) -->

<svg
   width="15.377584mm"
   height="21.182541mm"
   viewBox="0 0 15.377584 21.182541"
   version="1.1"
   id="svg5"
   inkscape:version="1.1.1 (3bf5ae0d25, 2021-09-20)"
   sodipodi:docname="j.svg"
   xmlns:inkscape="http://www.inkscape.org/namespaces/inkscape"
   xmlns:sodipodi="http://sodipodi.sourceforge.net/DTD/sodipodi-0.dtd"
   xmlns="http://www.w3.org/2000/svg"
   xmlns:svg="http://www.w3.org/2000/svg">
  <sodipodi:namedview
     id="namedview7"
     pagecolor="#ffffff"
     bordercolor="#666666"
     borderopacity="1.0"
     inkscape:pageshadow="2"
     inkscape:pageopacity="0.0"
     inkscape:pagecheckerboard="0"
     inkscape:document-units="mm"
     showgrid="false"
     fit-margin-top="0"
     fit-margin-left="0"
     fit-margin-right="0"
     fit-margin-bottom="0"
     inkscape:zoom="0.73762626"
     inkscape:cx="260.29442"
     inkscape:cy="49.483054"
     inkscape:window-width="1920"
     inkscape:window-height="991"
     inkscape:window-x="-9"
     inkscape:window-y="663"
     inkscape:window-maximized="1"
     inkscape:current-layer="g874" />
  <defs
     id="defs2">	</defs>
  <g
     inkscape:label="Capa 1"
     inkscape:groupmode="layer"
     id="layer1"
     transform="translate(-36.193075,-135.59025)">
    <g
       id="g874"
       transform="matrix(0.26458333,0,0,0.26458333,35.536908,135.15633)">				<g
   id="g850">			<circle
   fill="#77f5bd"
   cx="31.540001"
   cy="52.639999"
   r="26.52"
   id="circle846" />
			<path
   fill="#77f5bd"
   d="M 31.54,81.7 C 15.52,81.7 2.48,68.66 2.48,52.64 2.48,36.62 15.52,23.58 31.54,23.58 47.56,23.58 60.6,36.62 60.6,52.64 60.6,68.66 47.56,81.7 31.54,81.7 Z m 0,-53.04 c -13.23,0 -23.99,10.76 -23.99,23.99 0,13.23 10.76,23.99 23.99,23.99 13.23,0 23.99,-10.76 23.99,-23.99 0,-13.23 -10.76,-23.99 -23.99,-23.99 z"
   id="path848" />
		</g>
		<g
   id="g856">			<circle
   fill="#77f5bd"
   cx="31.540001"
   cy="9.7399998"
   r="7.6999998"
   id="circle852" />
			<path
   fill="#77f5bd"
   d="m 31.54,17.84 c -4.47,0 -8.1,-3.63 -8.1,-8.1 0,-4.47 3.63,-8.1 8.1,-8.1 4.47,0 8.1,3.63 8.1,8.1 0,4.47 -3.63,8.1 -8.1,8.1 z m 0,-15.4 c -4.03,0 -7.3,3.28 -7.3,7.3 0,4.02 3.28,7.3 7.3,7.3 4.02,0 7.3,-3.28 7.3,-7.3 0,-4.02 -3.27,-7.3 -7.3,-7.3 z"
   id="path854" />
		</g>
		<g
   id="g860">			<circle
   fill="#ffffff"
   cx="18.959999"
   cy="52.790001"
   r="4.8800001"
   id="circle858" />
		</g>
		<g
   id="g864">			<circle
   fill="#ffffff"
   cx="31.540001"
   cy="52.790001"
   r="4.8800001"
   id="circle862" />
		</g>
		<g
   id="g868">			<circle
   fill="#ffffff"
   cx="45.110001"
   cy="52.790001"
   r="4.8800001"
   id="circle866" />
		</g>
		<g
   id="g872">			<rect
   x="29.15"
   y="11.66"
   fill="#77f5bd"
   width="4.77"
   height="14.46"
   id="rect870" />
		</g>
	</g>
    <g
       id="Capa_2"
       transform="matrix(0.26458333,0,0,0.26458333,35.536908,135.15633)" />
  </g>
</svg>
